<?xml version="1.0" standalone="no"?><!DOCTYPE svg PUBLIC "-//W3C//DTD SVG 1.1//EN" "http://www.w3.org/Graphics/SVG/1.1/DTD/svg11.dtd"><svg t="1597826254150" class="icon" viewBox="0 0 1024 1024" version="1.1" xmlns="http://www.w3.org/2000/svg" p-id="3724" width="32" height="32" xmlns:xlink="http://www.w3.org/1999/xlink"><defs><style type="text/css"></style></defs><path d="M186.175783 918.988407a301.337614 105.011593 0 1 0 602.675228 0 301.337614 105.011593 0 1 0-602.675228 0Z" fill="#F9F2B2" p-id="3725"></path><path d="M654.527486 823.382201C792.229644 685.680043 845.557271 474.835028 710.959803 340.694132s-344.98591-81.269841-482.688068 56.432317C117.598647 507.799536 105.636457 642.94489 158.233568 760.740503a110.673087 110.673087 0 0 1 8.218299 59.17175c-2.830747 22.463349 1.095773 40.634921 12.78402 52.414481s29.951133 15.614767 52.414481 12.78402a110.673087 110.673087 0 0 1 59.17175 8.218299c117.886927 52.688425 253.032281 40.634921 363.705368-69.946852z" fill="#FCEE21" p-id="3726"></path><path d="M736.162585 369.823435c59.810951 129.301231 3.743892 292.206171-109.577314 406.349206-111.038345 110.581773-246.183699 122.635277-364.070626 70.038167a110.673087 110.673087 0 0 0-59.171749-8.218299 76.521491 76.521491 0 0 1-37.712859-3.378633 52.597111 52.597111 0 0 0 13.60585 37.712858c11.688247 11.688247 29.951133 15.614767 52.414481 12.78402a110.673087 110.673087 0 0 1 59.17175 8.218299c117.886927 52.597111 253.032281 40.634921 363.614054-70.038167C782.641629 695.176743 837.612915 504.146959 736.162585 369.823435z" fill="#EFD907" p-id="3727"></path><path d="M242.973358 463.146781a18.262886 18.262886 0 0 0 29.585874-4.109149c17.714999-33.968967 58.989121-90.675227 136.971643-88.118424a18.262886 18.262886 0 0 0 1.187088-36.525771c-71.407883-2.282861-133.501694 36.525771-170.301409 107.84234a18.262886 18.262886 0 0 0 2.556804 20.911004zM200.32952 550.443374a18.262886 18.262886 0 0 0 33.512395-4.200463 280.883182 280.883182 0 0 1 12.418762-35.795256 18.262886 18.262886 0 1 0-33.60371-14.336366 317.682896 317.682896 0 0 0-14.062422 40.452292 18.262886 18.262886 0 0 0 1.734975 13.879793z" fill="#FFFFFF" p-id="3728"></path><path d="M382.205528 514.323822m-8.058167 21.749053a23.193865 23.193865 0 1 0 16.116335-43.498106 23.193865 23.193865 0 1 0-16.116335 43.498106Z" fill="#3E3A39" p-id="3729"></path><path d="M557.210141 579.150355m-8.058167 21.749053a23.193865 23.193865 0 1 0 16.116335-43.498106 23.193865 23.193865 0 1 0-16.116335 43.498106Z" fill="#3E3A39" p-id="3730"></path><path d="M442.038811 621.668629A57.619404 57.619404 0 0 1 407.97853 547.88657l3.743891-10.135901a11.596932 11.596932 0 0 1 14.884252-6.848582l86.20082 31.96005a11.596932 11.596932 0 0 1 6.848583 14.884251l-3.743892 10.135902a57.619404 57.619404 0 0 1-73.873373 33.786339z" fill="#3E3A39" p-id="3731"></path><path d="M454.731517 587.334403a36.525771 36.525771 0 0 0-32.416622 3.561263 45.657214 45.657214 0 0 0 54.788657 20.271803 36.525771 36.525771 0 0 0-22.372035-23.833066z" fill="#FFFFFF" p-id="3732"></path><path d="M882.630928 737.820581h-16.253968V721.383984a7.944355 7.944355 0 0 0-15.797396 0v16.436597H834.690854a7.944355 7.944355 0 1 0 0 15.797397h16.253968v16.253968a7.944355 7.944355 0 0 0 15.797396 0v-16.345283h16.253968a7.944355 7.944355 0 0 0 7.944355-7.944355 7.853041 7.853041 0 0 0-7.944355-7.761727zM993.212701 369.914749h-16.253968v-16.253968a7.944355 7.944355 0 0 0-15.797396 0v16.253968h-16.253968a7.944355 7.944355 0 1 0 0 15.797397h16.253968V401.783485a7.944355 7.944355 0 1 0 15.797396 0v-16.071339h16.253968a7.944355 7.944355 0 1 0 0-15.797397z" fill="#F7E42F" p-id="3733"></path><path d="M390.537474 27.942215H371.726702V9.131443a9.131443 9.131443 0 1 0-18.262886 0v18.810772h-18.810772a9.131443 9.131443 0 0 0 0 18.262886h18.810772v18.810772a9.131443 9.131443 0 0 0 18.262886 0V46.113786h18.810772a9.131443 9.131443 0 1 0 0-18.262885z m0 0M291.004747 160.62208a13.697164 13.697164 0 1 0 13.697164-13.697165 13.697164 13.697164 0 0 0-13.697164 13.697165z m0 0M823.002607 216.597824a18.262886 18.262886 0 1 0 9.131443-15.88871 18.262886 18.262886 0 0 0-9.131443 15.88871z m0 0" fill="#F8B62D" p-id="3734"></path><path d="M586.224294 19.17603a18.262886 18.262886 0 1 0 9.131443-15.888711 18.262886 18.262886 0 0 0-9.131443 15.888711z m0 0" fill="#F7E42F" p-id="3735"></path><path d="M59.157413 351.286606a37.164972 37.164972 0 1 1 37.164973-37.164972 37.256287 37.256287 0 0 1-37.164973 37.164972z m0-56.067059a18.810772 18.810772 0 1 0 18.902087 18.902087 18.810772 18.810772 0 0 0-18.810772-18.810773z m0 0M944.907369 607.88015a37.164972 37.164972 0 1 1 37.164972-37.164973 37.256287 37.256287 0 0 1-37.164972 37.164973z m0-56.067059a18.810772 18.810772 0 1 0 18.810772 18.810772 18.810772 18.810772 0 0 0-18.810772-18.810772z m0 0" fill="#F8B62D" p-id="3736"></path><path d="M119.333622 170.210095a5.022294 5.022294 0 0 0-7.122526 0 5.113608 5.113608 0 0 0 0 7.122525l16.253968 16.253968a5.113608 5.113608 0 0 0 7.122526 0 5.022294 5.022294 0 0 0 0-7.122525z m42.826466 43.009095a5.113608 5.113608 0 0 0-7.122525 0 5.022294 5.022294 0 0 0 0 7.122526l16.253968 16.253968a5.022294 5.022294 0 0 0 7.122526-7.122525z m-3.561262-18.262885a5.113608 5.113608 0 0 0 3.561262-1.461031l16.253969-16.253968a5.113608 5.113608 0 0 0 0-7.122526 5.022294 5.022294 0 0 0-7.122526 0l-16.253968 16.253968a5.022294 5.022294 0 0 0 0 7.122526 5.113608 5.113608 0 0 0 3.561263 1.461031z m-30.225076 18.262885l-16.162654 16.162654a5.022294 5.022294 0 0 0 7.122526 7.122526l16.253968-16.253969a5.022294 5.022294 0 0 0-7.122526-7.122525z m3.196005-9.770644a5.022294 5.022294 0 0 0-5.022294-5.022293H103.62754a5.022294 5.022294 0 0 0 0 10.044587h22.828607a5.022294 5.022294 0 0 0 5.113608-5.022294z m55.519172-5.113608h-23.011236a5.022294 5.022294 0 0 0 0 10.044588h22.919922a5.022294 5.022294 0 0 0 0-10.044588z m-41.822008-41.822008a5.022294 5.022294 0 0 0-5.022293 5.022294v22.919921a5.022294 5.022294 0 0 0 10.044587 0v-23.011236a5.022294 5.022294 0 0 0-5.022294-5.022293z m0 60.632781a5.022294 5.022294 0 0 0-5.022293 5.022293v22.919922a5.022294 5.022294 0 1 0 10.044587 0v-22.919922a4.930979 4.930979 0 0 0-5.022294-5.022293z m0 0" fill="#FAEE00" p-id="3737"></path><path d="M807.296525 420.046371a186.007491 186.007491 0 0 0-13.697164-45.657215 99.897985 99.897985 0 0 1-9.67933-52.871054c3.196005-39.813091-10.683788-61.363296-22.828607-72.503656s-34.973426-23.011236-74.23863-16.345282a99.80667 99.80667 0 0 1-53.053683-5.387552 162.265739 162.265739 0 0 0-24.380952-7.122525c-150.486178-50.679508-328.731942 20.454432-447.440699 139.254503-120.535045 120.535045-150.668807 277.13929-82.182986 429.634386a103.185304 103.185304 0 0 1 7.579098 54.788657c-5.113608 40.908864 8.218299 63.9201 20.271803 75.88229s34.973426 25.385411 75.88229 20.271803a103.276619 103.276619 0 0 1 54.788657 7.579097 393.199929 393.199929 0 0 0 160.713394 35.795256c97.52381 0 190.847155-40.087034 269.012306-118.708757C786.294207 746.952024 857.245517 569.893348 807.296525 420.046371zM638.364833 835.709649c-107.659711 107.568397-247.279472 134.506153-383.064028 73.873372a142.176565 142.176565 0 0 0-57.984662-12.053504 155.234528 155.234528 0 0 0-19.267344 1.187087c-13.331907 1.64366-31.229535 1.552345-41.091493-8.309613s-10.044587-27.394329-8.309613-41.091493a145.007312 145.007312 0 0 0-10.866417-77.252006c-60.724095-135.875869-33.786339-275.49563 73.873373-383.064027C311.459179 269.194935 496.096953 200.891742 637.725632 278.143749c14.245051 6.118067 47.574817-4.565721 56.341002-6.118067 12.78402-2.191546 30.042447-2.830747 40.087034 6.300696s10.31853 26.38987 9.861958 39.356518c-0.730515 21.367576-9.861958 48.761905-3.287319 57.162833 90.127341 143.363653 21.64152 336.858926-102.363474 460.86392z" fill="#FCEE21" p-id="3738"></path><path d="M700.641273 317.774211c-81.087212 47.026931-197.969681-3.013376-197.969681-3.013376s14.701623-126.19654 95.88015-173.497414 197.969681 3.013376 197.969681 3.013376-14.792937 126.470483-95.88015 173.497414z" fill="#FFFFFF" p-id="3739"></path><path d="M683.382846 283.074728C618.001715 320.604958 524.221797 280.243981 524.221797 280.243981s11.870876-101.724273 77.252006-139.619761 159.526306 2.46549 159.526307 2.465489-12.236133 101.724273-77.617264 139.985019z" fill="#8ED420" p-id="3740"></path><path d="M760.086966 142.815766h0.547886S748.763976 244.813983 683.382846 283.074728c-43.10041 25.020153-98.710897 15.980025-131.675406 6.939897 7.305154 3.013376 96.336722 38.534689 159.069734 2.191546 65.381131-37.895488 77.252006-139.619761 77.252007-139.619761a240.248261 240.248261 0 0 0-27.942215-9.770644z" fill="#86C617" p-id="3741"></path><path d="M708.22037 330.923488c-86.748707 50.222936-206.553237 0-211.57553-2.191546a15.24951 15.24951 0 0 1-9.131443-15.797396c0.639201-5.478866 16.619226-134.414839 103.367933-184.637774s206.553237 0 211.57553 2.191546a15.24951 15.24951 0 0 1 9.131443 15.797396c-0.639201 5.478866-16.619226 134.414839-103.367933 184.637774zM519.656076 304.807562c29.768504 10.409845 113.595149 34.334225 173.497414 0s80.63064-118.708757 86.474763-150.212235c-29.768504-10.409845-113.595149-34.334225-173.497414 0S525.408885 273.943285 519.656076 304.807562z" fill="#86C617" p-id="3742"></path><path d="M484.773964 229.838416c52.505796 31.96005 129.757803 0.82183 129.757803 0.82183s-7.853041-82.913501-60.267523-114.873551-129.757803-0.82183-129.757803-0.82183 7.761726 82.913501 60.267523 114.873551z" fill="#FFFFFF" p-id="3743"></path><path d="M496.827469 207.101124c42.27858 25.750669 104.555021 0.730515 104.55502 0.730515s-6.300696-66.842162-48.579276-92.59283-104.555021-0.730515-104.55502-0.730516 6.026752 66.842162 48.579276 92.592831z" fill="#8ED420" p-id="3744"></path><path d="M448.339507 114.416979s6.300696 66.842162 48.579276 92.59283c27.850901 16.984484 64.467986 11.870876 86.109506 6.39201-4.839665 1.826289-63.9201 23.833066-104.189763-0.82183-42.27858-25.750669-48.579276-92.59283-48.579276-92.59283a157.426075 157.426075 0 0 1 18.080257-5.57018z" fill="#86C617" p-id="3745"></path><path d="M414.644483 115.87801a9.953273 9.953273 0 0 1 6.209381-10.227216c3.378634-1.369716 82.182986-32.599251 138.706617 1.552345s64.74193 118.708757 65.015873 122.452648a9.953273 9.953273 0 0 1-6.209381 10.227216c-3.378634 1.369716-82.182986 32.599251-138.706617-1.552345S414.644483 119.530587 414.644483 115.87801z m134.506153 8.492241c-38.626003-23.559123-93.871232-9.131443-113.503835-2.648118 3.378634 20.454432 15.888711 76.156233 54.788658 99.624041s93.871232 9.131443 113.503834 2.648119c-3.743892-20.363118-15.797396-76.064919-54.879971-99.624042z" fill="#86C617" p-id="3746"></path></svg>